<?xml version="1.0" standalone="no"?>
<!DOCTYPE svg PUBLIC "-//W3C//DTD SVG 1.1//EN" "http://www.w3.org/Graphics/SVG/1.1/DTD/svg11.dtd" >
<svg xmlns="http://www.w3.org/2000/svg">
<metadata>Generated by IcoMoon</metadata>
<defs>
<font id="icomoon" horiz-adv-x="1024">
<font-face units-per-em="1024" ascent="960" descent="-64" />
<missing-glyph horiz-adv-x="1024" />
<glyph unicode="&#x20;" horiz-adv-x="512" d="" />
<glyph unicode="&#xe900;" glyph-name="minimize_icon" horiz-adv-x="5120" d="M0 960h5120v-1031.314h-5120v1031.314z" />
<glyph unicode="&#xe901;" glyph-name="assort_icon" horiz-adv-x="1078" d="M536.594 960l541.066-389.031-205.694-634.969h-666.271l-205.694 634.969 536.594 389.031z" />
<glyph unicode="&#xe902;" glyph-name="back_icon" horiz-adv-x="647" d="M0 448l480.561 512h166.175l-480.561-512 480.561-512h-166.175z" />
<glyph unicode="&#xe903;" glyph-name="barcode_icon" horiz-adv-x="1406" d="M699.949 960h583.291c1.998 0.129 4.332 0.203 6.684 0.203 60.849 0 110.177-49.328 110.177-110.177 0-2.351-0.074-4.686-0.219-7.001l0.016 0.317v-790.684c0.595-4.175 0.936-8.997 0.936-13.898 0-57.27-46.426-103.696-103.696-103.696-4.901 0-9.723 0.34-14.443 0.998l0.545-0.062h-1173.063c-2.473-0.21-5.351-0.329-8.258-0.329-50.511 0-92.587 36.115-101.815 83.931l-0.105 0.652v829.57c-0.138 2.003-0.217 4.341-0.217 6.698 0 57.27 46.426 103.696 103.696 103.696 2.356 0 4.695-0.079 7.012-0.233l-0.314 0.017zM699.949 895.19h-589.772c-38.886 0-51.848-12.962-51.848-51.848v-790.684c0-38.886 19.443-51.848 51.848-51.848h1173.063c38.886 0 58.329 12.962 58.329 51.848v790.684c0 38.886-19.443 51.848-58.329 51.848zM239.797 130.43h-58.329v635.139h58.329zM375.899 130.43h-58.329v635.139h58.329zM505.519 130.43h-58.329v635.139h58.329zM602.734 130.43h-58.329v635.139h58.329zM777.722 130.43h-58.329v635.139h58.329zM797.165 765.57h58.329v-635.139h-58.329zM920.304 765.57h58.329v-635.139h-58.329zM1237.873 130.43h-58.329v635.139h58.329zM1062.886 765.57h64.81v-635.139h-64.81z" />
<glyph unicode="&#xe904;" glyph-name="carton_icon" horiz-adv-x="1398" d="M134.898 365.222v239.138c0 12.263 0 12.263-12.263 18.395l-98.108 30.659c-30.659 6.132-36.79 18.395-12.263 36.79l110.371 116.503 18.395 18.395 18.395 12.263 527.329 116.503c2.258 2.552 5.541 4.152 9.198 4.152s6.94-1.6 9.186-4.139l0.011-0.013 515.066-116.503c16.429-2.513 30.999-9.041 43.122-18.546l-0.2 0.151 128.766-128.766c12.263-18.395 12.263-30.659-18.395-36.79l-104.24-30.659c-6.132-6.132-12.263-6.132-12.263-18.395v-478.275c0-24.527 0-24.527-30.659-36.79l-515.066-153.293h-24.527l-521.198 153.293c-24.527 6.132-30.659 12.263-30.659 30.659zM196.216 598.228v-459.88c0-6.132 0-12.263 12.263-12.263l367.904-110.371 85.844-30.659v594.778l-73.581-73.581c-6.781-9.025-17.464-14.801-29.496-14.801-4.832 0-9.447 0.932-13.674 2.625l0.248-0.088-239.138 73.581zM1195.689 598.228h-12.263l-331.114-98.108c-4.998-2.707-10.942-4.299-17.257-4.299-9.987 0-19.044 3.979-25.673 10.438l0.008-0.008-42.922 49.054c-13.867 10.832-25.958 22.924-36.445 36.332l-0.346 0.459v-600.91h12.263l447.617 134.898c6.132 0 6.132 6.132 6.132 12.263v459.88zM257.533 812.838h12.263l416.958-122.635h24.527l355.641 98.108 67.449 24.527h-6.132l-423.090 98.108h-24.527l-349.509-79.713zM1220.216 788.311l-472.144-147.162 104.24-104.24 472.144 147.162zM79.713 684.072l472.144-147.162 98.108 104.24-472.144 147.162z" />
<glyph unicode="&#xe905;" glyph-name="close_icon" horiz-adv-x="1038" d="M1033.143 909.714l-448-443.429c-9.143-13.714-18.286-18.286-4.571-36.571l452.571-448v-32c-8.352-8.819-20.143-14.307-33.217-14.307-17.071 0-31.957 9.357-39.808 23.222l-0.118 0.227-416 416c-22.857 22.857-32 22.857-54.857 0-137.143-141.714-278.857-278.857-416-416-7.969-14.092-22.855-23.45-39.926-23.45-13.074 0-24.865 5.488-33.197 14.286l-0.020 0.021v32l452.571 448c22.857 22.857 0 32-9.143 41.143l-406.857 406.857-36.571 32c-9.143 41.143 9.143 59.429 50.286 50.286l448-452.571c13.714-13.714 22.857-13.714 36.571 0l448 452.571c41.143 9.143 59.429-9.143 50.286-50.286z" />
<glyph unicode="&#xe906;" glyph-name="copy_icon" d="M1019.367 668.090v-653.321c-2.91-31.421-22.862-57.562-50.423-69.296l-0.545-0.206h-537.484c-39.702 6.89-69.51 41.083-69.51 82.238 0 0.41 0.003 0.819 0.009 1.227l-0.001-0.062v125.104h-278.009c-39.754 0.715-73.020 27.672-83.255 64.249l-0.148 0.62v389.213c4.522 32.92 19.612 61.69 41.681 83.383l0.020 0.020 222.407 227.041c17.407 14.341 37.234 26.745 58.573 36.395l1.662 0.673h287.276c39.702-6.89 69.51-41.083 69.51-82.238 0-0.41-0.003-0.819-0.009-1.227l0.001 0.062v-152.905h4.633c19.54 11.725 43.117 18.66 68.312 18.66 2.048 0 4.086-0.046 6.111-0.137l-0.288 0.010h176.072c0.040 0 0.088 0 0.136 0 36.097 0 66.837-22.931 78.449-55.021l0.184-0.581c2.649-3.92 4.338-8.687 4.63-13.827l0.003-0.074zM449.448 362.281v-342.878h486.516v639.421h-194.606v-245.575c-4.382-27.779-27.243-49.055-55.417-50.958l-0.184-0.010h-236.308zM361.412 876.597v-240.941c-7.693-21.334-27.488-36.432-50.893-37.066l-0.075-0.002h-227.041v-356.778h278.009v9.267c-0.122 6.18-0.191 13.468-0.191 20.772 0 36.735 1.752 73.060 5.177 108.897l-0.353-4.565c-0.001 0.219-0.002 0.478-0.002 0.738 0 39.481 15.929 75.242 41.711 101.207l-0.008-0.008 55.602 46.335 129.738 125.104h4.633v222.407h-236.308zM278.009 834.896l-152.905-152.905h152.905zM509.683 445.683h148.271v148.271z" />
<glyph unicode="&#xe907;" glyph-name="download_icon" horiz-adv-x="897" d="M51.67-64c-42.275 18.789-46.972 32.881-46.972 84.55s0 178.495-4.697 267.743c0 14.092 4.697 18.789 18.789 18.789h89.248c14.092 0 18.789 0 18.789-18.789v-197.284c0-14.092 4.697-18.789 18.789-18.789h610.642c14.092 0 18.789 4.697 18.789 18.789v197.284c0 14.092 4.697 18.789 18.789 18.789h89.248c14.092 0 18.789-4.697 18.789-14.092-4.697-98.642-4.697-192.587-4.697-286.532 0.072-1.192 0.113-2.586 0.113-3.99 0-30.537-19.426-56.536-46.594-66.315l-0.491-0.154zM366.385 776.807v159.706c-4.697 18.789 4.697 23.486 18.789 23.486h131.523c18.789 0 23.486-9.394 23.486-28.183v-300.624c0-23.486 4.697-28.183 23.486-28.183h70.459c0.729 0.1 1.572 0.157 2.427 0.157 6.982 0 13.074-3.808 16.313-9.46l0.048-0.092-9.394-14.092-164.404-239.56c-18.789-23.486-28.183-23.486-46.972 0s-112.734 155.009-173.798 230.165c-4.697 4.697-9.394 9.394-4.697 18.789s9.394 4.697 14.092 4.697h75.156c18.789 0 23.486 4.697 23.486 23.486s0 108.037 0 159.706z" />
<glyph unicode="&#xe908;" glyph-name="help_icon" d="M1024 413.538c-0.95-21.406-4.482-41.61-10.3-60.82l0.454 1.743c-20.586-119.024-80.981-221.275-166.718-294.826l-0.667-0.559c-69.273-61.332-156.734-103.606-253.322-117.83l-2.678-0.324c-22.731-3.541-48.948-5.564-75.638-5.564-256.161 0-468.803 186.327-509.788 430.844l-0.419 3.028c-3.6 22.92-5.657 49.352-5.657 76.265 0 238.49 161.506 439.258 381.112 498.898l3.621 0.838 83.692 14.769h88.615l54.154-9.846c95.574-19.999 178.901-63.23 246.69-123.545l-0.536 0.469c80.549-73.148 137.059-171.474 157.081-282.484l0.457-3.055c5.364-17.467 8.896-37.671 9.828-58.551l0.019-0.526zM512 915.692c-258.299 0-467.692-209.393-467.692-467.692s209.393-467.692 467.692-467.692c258.299 0 467.692 209.393 467.692 467.692v0c0 258.299-209.393 467.692-467.692 467.692v0zM398.769 561.231v44.308h182.154v-359.385h64v-44.308h-241.231v44.308h64v315.077zM521.846 758.154c29.908 0 54.154-24.246 54.154-54.154s-24.246-54.154-54.154-54.154v0c-29.908 0-54.154 24.246-54.154 54.154s24.246 54.154 54.154 54.154v0z" />
<glyph unicode="&#xe909;" horiz-adv-x="1019" d="M0 851.692c5.447 48.82 41.239 87.944 87.862 98.321l0.754 0.141h379.077c-11.903-14.093-21.847-30.36-29.097-48.017l-0.441-1.213c0-9.846 0-24.615-4.923-24.615h-310.154c-34.462-4.923-49.231-14.769-49.231-49.231v-772.923c0-29.538 14.769-44.308 49.231-44.308h777.846c1.586-0.226 3.417-0.355 5.278-0.355 21.752 0 39.385 17.633 39.385 39.385 0 1.861-0.129 3.693-0.379 5.485l0.024-0.207v300.308c0 8.157 6.612 14.769 14.769 14.769v0l59.077 29.538c4.923-4.923 0-9.846 0-14.769v-329.846c0.393-3.462 0.616-7.474 0.616-11.539 0-53.075-38.176-97.233-88.566-106.513l-0.666-0.102h-846.769c-46.122 10.926-80.446 50.266-83.674 98.131l-0.018 0.331v817.231z" />
<glyph unicode="&#xe90a;" horiz-adv-x="1019" d="M1024 521.846c-9.846-29.538-24.615-49.231-54.154-49.231-0.609-0.025-1.324-0.039-2.042-0.039-24.663 0-45.475 16.487-52.017 39.041l-0.095 0.383c-3.419 5.259-5.452 11.693-5.452 18.602 0 2.125 0.192 4.205 0.561 6.224l-0.032-0.211v216.615c0.045 0.499 0.070 1.079 0.070 1.665 0 5.041-1.894 9.64-5.010 13.124l0.017-0.019-78.769-78.769c-103.385-103.385-201.846-206.769-305.231-305.231-9.042-12.513-23.592-20.561-40.022-20.561-3.257 0-6.44 0.316-9.521 0.92l0.311-0.051c-0.329-0.009-0.716-0.014-1.105-0.014-20.984 0-38.562 14.588-43.144 34.176l-0.059 0.3c-3.288 6.040-5.22 13.227-5.22 20.865 0 13.242 5.809 25.128 15.018 33.247l0.048 0.042 78.769 83.692 300.308 300.308 14.769 9.846c-9.846 4.923-14.769 0-19.692 0h-216.615c-0.68-0.026-1.478-0.041-2.28-0.041-24.567 0-45.902 13.843-56.629 34.153l-0.168 0.349c-2.371 6.149-3.744 13.263-3.744 20.698 0 23.242 13.422 43.349 32.937 52.994l0.346 0.154h408.615c25.997-6.081 45.658-27.401 49.195-53.826l0.036-0.328v-384z" />
<glyph unicode="&#xe90b;" glyph-name="mix_icon" horiz-adv-x="946" d="M488.236 765.57l-488.236-211.713 267.882-198.751 267.882 69.131c-12.962 116.658-30.245 228.996-47.527 341.333zM553.046 795.814c21.603-116.658 38.886-237.637 51.848-354.295l289.485 69.131 47.527 449.35zM613.536 372.388l25.924-289.485 194.43-142.582 51.848 496.878zM544.405 355.105l-203.072-51.848 73.451-56.169 151.224-108.017c-8.641 69.131-12.962 142.582-21.603 216.034z" />
<glyph unicode="&#xe90c;" glyph-name="play_icon" d="M1019.1 450.45c-0.013-281.406-228.142-509.527-509.55-509.527-281.417 0-509.55 228.133-509.55 509.55s228.133 509.55 509.55 509.55c1.723 0 3.443-0.009 5.162-0.026l-0.262 0.002c279.302-2.771 504.651-229.832 504.651-509.527 0-0.008 0-0.016 0-0.024v0.001zM916.211 460.249c-5.542 220.286-185.433 396.746-406.539 396.746-224.592 0-406.66-182.068-406.66-406.66s182.068-406.66 406.66-406.66c3.403 0 6.796 0.042 10.179 0.125l-0.501-0.010c220.39 5.412 396.982 185.356 396.982 406.545 0 3.486-0.044 6.962-0.131 10.427l0.010-0.513zM715.33 450.45l-303.77-230.278v460.555z" />
<glyph unicode="&#xe90d;" glyph-name="scanner_icon" horiz-adv-x="1004" d="M1004.117 597.126c-8.617-40.88-27.886-76.337-54.758-104.471l0.078 0.082h-9.942c-49.709-14.913-49.709-64.621-54.68-109.359l-59.65-362.874c-4.948-43.492-40.452-77.283-84.289-79.525l-0.216-0.009h-124.272c-48.23 1.515-86.752 40.976-86.752 89.434 0 7.065 0.819 13.938 2.367 20.531l-0.12-0.606c4.971 64.621 19.883 129.243 29.825 193.864s19.883 144.155 34.796 213.748h-84.505c-0.093-0.001-0.202-0.001-0.312-0.001-20.211 0-36.9 15.077-39.434 34.598l-0.021 0.2-149.126 412.583c-3.35 5.704-5.329 12.564-5.329 19.885 0 21.963 17.804 39.767 39.767 39.767 0.126 0 0.251-0.001 0.377-0.002h492.098c78.061-2.223 141.448-62.17 149.074-138.541l0.052-0.644c0-4.971 4.971-4.971 4.971-9.942zM556.738 880.466c39.767-114.33 79.534-223.689 124.272-338.019l14.913-9.942h149.126c54.68 0 84.505 39.767 89.476 94.447v159.068c-4.971 59.65-34.796 94.447-89.476 94.447h-288.311zM636.272 278.99h44.738c19.883 0 29.825-14.913 29.825-39.767 0-19.217-15.579-34.796-34.796-34.796v0h-34.796c-14.913 0-19.883-4.971-19.883-19.883s-14.913-89.476-24.854-134.214 4.971-29.825 24.854-29.825h109.359c14.913 0 24.854 4.971 29.825 24.854 4.848 45.757 11.849 86.361 21.228 126.046l-1.344-6.745 44.738 293.282h-159.068zM606.447 532.505v0l-119.301 338.019-14.913 9.942h-64.621c29.825-94.447 64.621-183.922 99.417-278.369s24.854-69.592 94.447-64.621zM54.68 845.67c29.825 0 44.738-24.854 39.767-54.68-12.629-35.345-19.928-76.119-19.928-118.598 0-1.995 0.016-3.986 0.048-5.973l-0.004 0.3c-0.222-4.3-0.348-9.336-0.348-14.401 0-113.945 63.897-212.966 157.815-263.186l1.601-0.782c24.854-14.913 34.796-29.825 29.825-49.709-3.749-15.479-17.485-26.796-33.864-26.796-7.845 0-15.084 2.596-20.905 6.977l0.089-0.064c-101.923 54.885-175.463 151.283-198.421 265.951l-0.414 2.476c-5.329 25.912-8.38 55.693-8.38 86.186 0 50.981 8.527 99.971 24.234 145.62l-0.941-3.146q14.913 29.825 29.825 29.825zM198.835 776.078c0.882 0.070 1.91 0.109 2.946 0.109 21.963 0 39.767-17.804 39.767-39.767 0-5.416-1.083-10.579-3.044-15.285l0.097 0.263c-4.742-14.868-7.475-31.969-7.475-49.709s2.733-34.841 7.801-50.906l-0.326 1.197c13.501-31.504 35.853-57.059 63.92-74.166l0.701-0.397c10.928-8.145 18.344-20.477 19.864-34.576l0.019-0.22c0-14.913-14.913-24.854-24.854-34.796s-14.913 0-24.854 4.971c-66.37 37.137-110.499 106.994-110.499 187.157 0 29.312 5.9 57.245 16.577 82.678l-0.525-1.408z" />
<glyph unicode="&#xe90e;" glyph-name="settings_icon" horiz-adv-x="996" d="M877.058 399.785c0 18.368 4.592 32.143 4.592 50.511s-4.592 32.143-4.592 50.511l105.614 82.655c6.365 5.891 10.336 14.289 10.336 23.614 0 3.035-0.421 5.972-1.207 8.756l0.055-0.226-105.614 179.085c-3.617 8.219-11.689 13.853-21.076 13.853-0.663 0-1.319-0.028-1.968-0.083l0.085 0.006h-4.592l-128.574-55.103c-25.033 20.294-53.857 37.311-85.014 49.726l-2.232 0.785-18.368 137.758c-5.059 10.52-15.392 17.78-27.478 18.365l-0.074 0.003h-202.045c-12.159-0.588-22.493-7.848-27.468-18.175l-0.084-0.193-18.368-137.758c-33.389-13.2-62.214-30.217-87.866-50.997l0.619 0.486-128.574 50.511h-9.184c-8.29-1.027-15.135-6.344-18.31-13.628l-0.058-0.148-105.614-174.493c-0.732-2.557-1.152-5.494-1.152-8.529 0-9.326 3.971-17.724 10.315-23.595l0.021-0.019 105.614-82.655c0-18.368-4.592-32.143-4.592-50.511s4.592-32.143 4.592-50.511l-105.614-82.655c-6.365-5.891-10.336-14.289-10.336-23.614 0-3.035 0.421-5.972 1.207-8.756l-0.055 0.226 105.614-179.085c3.617-8.219 11.689-13.853 21.076-13.853 0.663 0 1.319 0.028 1.968 0.083l-0.085-0.006c2.536 0 4.592 2.056 4.592 4.592v0l128.574 50.511c25.033-20.294 53.857-37.311 85.014-49.726l2.232-0.785 18.368-137.758c5.059-10.52 15.392-17.78 27.478-18.365l0.074-0.003h202.045c12.159 0.588 22.493 7.848 27.468 18.175l0.084 0.193 18.368 137.758c33.389 13.2 62.214 30.217 87.866 50.997l-0.619-0.486 128.574-50.511c0-4.592 4.592-4.592 9.184-4.592 8.29 1.027 15.135 6.344 18.31 13.628l0.058 0.148 105.614 179.085c0.732 2.557 1.152 5.494 1.152 8.529 0 9.326-3.971 17.724-10.315 23.595l-0.021 0.019zM776.036 487.031v-73.471l-9.184-59.695 45.919-36.735 55.103-41.327-36.735-59.695-64.287 22.96-50.511 22.96-45.919-36.735-64.287-36.735-55.103-22.96-9.184-55.103-9.184-68.879h-73.471l-9.184 68.879-9.184 55.103-50.511 22.96-64.287 36.735-45.919 36.735-55.103-22.96-64.287-22.96-36.735 59.695 55.103 41.327 45.919 36.735-9.184 59.695v73.471l9.184 59.695-45.919 36.735-55.103 41.327 36.735 59.695 64.287-22.96 50.511-22.96 45.919 36.735 64.287 36.735 55.103 22.96 9.184 55.103 9.184 68.879h73.471l9.184-68.879 9.184-55.103 50.511-22.96 64.287-36.735 45.919-36.735 55.103 22.96 64.287 22.96 36.735-59.695-55.103-41.327-45.919-36.735zM495.928 656.933c-114.122 0-206.637-92.514-206.637-206.637s92.514-206.637 206.637-206.637c114.122 0 206.637 92.514 206.637 206.637v0c0 114.122-92.514 206.637-206.637 206.637v0zM495.928 349.274c-55.793 0-101.022 45.229-101.022 101.022s45.229 101.022 101.022 101.022c55.793 0 101.022-45.229 101.022-101.022v0c0-55.793-45.229-101.022-101.022-101.022v0z" />
<glyph unicode="&#xe90f;" glyph-name="solid_icon" horiz-adv-x="946" d="M946.228 960l-56.169-509.84-51.848-514.16-419.105 306.768-419.105 311.089 470.954 203.072 475.274 203.072z" />
<glyph unicode="&#xe910;" glyph-name="swiss_icon" horiz-adv-x="3668" d="M461.448 817.418l-28.516 20.739-25.924 15.554-31.109 12.962h-46.663c-27.966-0.571-54.634-5.27-79.696-13.51l1.924 0.548c-23.792-9.668-44.326-21.875-62.693-36.664l0.475 0.37c-18.733-14.242-33.674-32.505-43.695-53.562l-0.376-0.878c-10.666-18.669-17.29-40.879-18.14-64.56l-0.007-0.25c0.088-23.191 3.875-45.468 10.802-66.311l-0.432 1.501c8.78-16.849 21.049-30.776 35.93-41.236l0.363-0.242c17.826-14.651 38.39-26.883 60.659-35.747l1.558-0.547 98.511-36.294 57.033-20.739 49.256-20.739c17.942-5.961 33.367-12.979 47.883-21.392l-1.22 0.652 38.886-25.924c30.035-24.157 53.208-55.673 66.911-91.847l0.492-1.48c13.231-32.338 20.911-69.867 20.911-109.189 0-3.538-0.062-7.062-0.186-10.57l0.014 0.509c0.046-1.817 0.072-3.956 0.072-6.102 0-41.168-9.596-80.095-26.673-114.665l0.677 1.517c-18.119-34.546-41.562-63.782-69.599-87.811l-0.396-0.331c-28.773-25.649-63.5-45.282-101.808-56.556l-1.888-0.477c-37.089-13.005-79.852-20.587-124.365-20.739h-0.071c-3.132-0.109-6.812-0.172-10.506-0.172-80.39 0-153.889 29.509-210.253 78.287l0.405-0.343c-15.077 14.090-28.69 29.348-40.837 45.757l-0.641 0.907c-10.823 11.32-20.285 24.086-28.031 37.941l-0.485 0.945 10.37 7.777c12.725 7.15 27.741 11.815 43.734 12.943l0.337 0.019 33.701-5.185c10.298-2.787 19.088-8.217 25.894-15.522l0.030-0.033c14.92-16.038 31.982-29.798 50.797-40.905l1.051-0.574c12.555-9.155 27.262-16.284 43.147-20.529l0.924-0.21 41.478-7.777h38.886c4.377-0.236 9.502-0.37 14.657-0.37 24.241 0 47.788 2.971 70.297 8.568l-1.998-0.42c29.604 8.499 55.464 20.901 78.672 36.879l-0.9-0.586c23.252 15.635 41.763 36.639 54.027 61.298l0.414 0.919c13.265 22.189 21.108 48.945 21.108 77.533 0 3.733-0.134 7.435-0.397 11.101l0.028-0.492c0.116 2.672 0.182 5.807 0.182 8.956 0 29.457-5.78 57.564-16.268 83.249l0.532-1.472c-10.656 23.223-26.552 42.444-46.251 56.748l-0.412 0.285c-20.162 14.294-43.279 26.542-67.928 35.627l-2.067 0.667-88.142 31.109-108.881 44.071c-31.676 12.845-59.019 28.522-83.867 47.323l0.91-0.66c-22.749 18.011-41.113 40.52-53.932 66.273l-0.509 1.129c-11.655 27.952-18.424 60.426-18.424 94.481 0 4.153 0.101 8.283 0.3 12.387l-0.022-0.579c-0.051 1.71-0.079 3.723-0.079 5.742 0 36.908 9.641 71.564 26.542 101.587l-0.538-1.040c16.289 32.384 39.069 59.311 66.808 79.942l0.595 0.423c25.673 22.696 55.768 41.123 88.728 53.764l2.006 0.676c30.781 10.521 66.291 17.080 103.18 18.135l0.516 0.012c28.765-0.114 56.386-4.848 82.212-13.499l-1.847 0.537c24.631-6.931 46.166-16.669 65.819-29.113l-1.009 0.597c20.591-12.372 38.427-26.083 54.539-41.573l-0.099 0.094c16.1-13.549 30.522-27.971 43.631-43.535l0.44-0.536-20.739-15.554-20.739-7.777-25.924-5.185c-16.352 0.378-31.515 5.152-44.446 13.179l0.375-0.217zM1099.18 107.099c2.767-4.447 4.622-9.736 5.173-15.406l0.012-0.148c2.592-7.777 2.592-15.554 5.185-20.739s2.592-12.962 2.592-20.739 2.592 12.962 2.592 20.739 2.592 12.962 5.185 18.147c1.653 7.321 3.436 13.391 5.545 19.306l-0.361-1.159 344.79 790.684c6.924 15.040 17.572 27.354 30.79 36.096l0.319 0.198c12.367 8.156 27.537 13.012 43.841 13.012 0.992 0 1.981-0.018 2.965-0.054l-0.142 0.004h38.886l-197.023-453.671 173.691-386.268 7.777-15.554c0-7.777 2.592-15.554 2.592-20.739 1.709-5.177 2.695-11.135 2.695-17.324 0-1.202-0.037-2.394-0.11-3.577l0.008 0.162c1.709 5.177 2.695 11.135 2.695 17.324 0 1.202-0.037 2.394-0.11 3.577l0.008-0.162c2.592 5.185 2.592 12.962 5.185 18.147l7.777 18.147 344.79 790.684c5.295 15.953 16.406 28.751 30.759 36.13l0.349 0.163c11.341 8.25 25.547 13.199 40.909 13.199 2.026 0 4.031-0.086 6.013-0.255l-0.258 0.018h38.886l-438.116-1000.668h-75.18l-173.691 383.676c-5.107 8.98-8.758 19.478-10.317 30.645l-0.053 0.464c-2.569 8.335-4.411 18.049-5.158 28.069l-0.027 0.448c0 5.185 2.592 10.37 2.592 15.554s0 7.777 2.592 10.37l-207.392-469.225h-72.587l-458.856 1000.668h38.886c1.28 0.078 2.776 0.122 4.283 0.122 15.83 0 30.518-4.893 42.633-13.249l-0.252 0.164c14.23-8.135 25.131-20.713 30.947-35.815l0.162-0.479zM2079.109 887.413c0.527 10.36 2.384 20.097 5.409 29.304l-0.224-0.788 15.554 23.332 23.332 15.554 28.516 5.185 28.516-5.185 23.332-15.554 15.554-23.332c2.801-8.42 4.658-18.156 5.174-28.248l0.011-0.269c-0.527-10.36-2.384-20.097-5.409-29.304l0.224 0.788-15.554-23.332-23.332-15.554-28.516-5.185-28.516 5.185-23.332 15.554-15.554 23.332c-2.801 8.42-4.658 18.156-5.174 28.248l-0.011 0.269zM2195.767 680.020v-733.651h-88.142v733.651zM2817.944 817.418l-28.516 20.739-28.516 15.554-31.109 12.962h-44.071c-27.861-0.076-54.59-4.817-79.482-13.48l1.71 0.518c-24.839-9.010-46.312-21.299-65.228-36.621l0.417 0.327c-17.981-14.923-32.754-33.006-43.609-53.484l-0.462-0.956c-9.803-18.631-15.556-40.712-15.556-64.136 0-0.237 0.001-0.474 0.002-0.711v0.036c-0.144-2.505-0.226-5.435-0.226-8.384 0-20.302 3.89-39.696 10.964-57.477l-0.369 1.051c8.405-17.354 19.748-32.013 33.53-43.926l0.172-0.145c18.625-14.537 40.037-26.774 63.094-35.709l1.716-0.585 95.919-36.294 59.625-20.739 49.256-20.739 44.071-20.739 38.886-25.924c31.563-23.421 55.758-55.133 69.537-91.931l0.458-1.396c13.138-35.174 20.741-75.817 20.741-118.236 0-0.357-0.001-0.713-0.002-1.070v0.055c-0.354-43.256-9.865-84.203-26.686-121.117l0.761 1.866c-18.119-34.546-41.562-63.782-69.599-87.811l-0.396-0.331c-29.289-24.52-63.8-43.969-101.498-56.405l-2.198-0.628c-37.889-13.016-81.549-20.596-126.96-20.739h-0.068c-2.578-0.073-5.612-0.115-8.656-0.115-80.977 0-155.071 29.466-212.146 78.261l0.448-0.374-41.478 46.663c-10.033 11.235-18.683 24.029-25.484 37.894l-0.44 0.993 10.37 7.777c12.644 7.498 27.734 12.218 43.862 12.954l0.209 0.008 31.109-5.185c11.165-2.734 20.806-8.166 28.539-15.576l-0.022 0.021c14.92-16.038 31.982-29.798 50.797-40.905l1.051-0.574c12.406-9.608 27.195-16.803 43.298-20.586l0.773-0.153c11.491-4.853 24.846-7.705 38.858-7.777h38.914c4.229-0.201 9.186-0.315 14.169-0.315 25.312 0 49.934 2.949 73.543 8.523l-2.163-0.431c28.714 7.891 53.789 20.349 75.779 36.72l-0.6-0.427c23.438 16.315 42.589 37.121 56.546 61.303l0.487 0.914c13.105 24.049 20.812 52.671 20.812 83.092 0 1.776-0.026 3.545-0.078 5.308l0.006-0.259c0.211 3.275 0.331 7.101 0.331 10.954 0 29.043-6.823 56.492-18.953 80.833l0.475-1.053c-10.656 23.223-26.552 42.444-46.251 56.748l-0.412 0.285c-19.931 15.473-43.202 27.848-68.416 35.861l-1.579 0.433-85.549 33.701c-41.478 15.554-77.772 28.516-108.881 44.071-32.681 12.215-60.953 27.963-86.378 47.266l0.828-0.603c-21.11 18.697-38.492 41.047-51.263 66.137l-0.585 1.266c-13.161 29.349-20.827 63.611-20.827 99.664 0 2.329 0.032 4.651 0.096 6.965l-0.007-0.341c0.313 38.838 9.861 75.376 26.55 107.619l-0.626-1.33c18.069 31.356 40.533 57.95 66.936 79.985l0.467 0.379c26.467 22.727 57.423 41.17 91.23 53.757l2.096 0.684c30.81 10.754 66.351 17.334 103.313 18.14l0.383 0.007c27.861-0.076 54.59-4.817 79.482-13.48l-1.71 0.518c25.6-6.956 48.008-16.704 68.579-29.179l-1.177 0.662 54.441-41.478c16.1-13.549 30.522-27.971 43.631-43.535l0.44-0.536-23.332-15.554-18.147-7.777-25.924-5.185c-0.547-0.014-1.191-0.022-1.837-0.022-15.768 0-30.402 4.854-42.49 13.15l0.256-0.166zM3515.301 817.418l-28.516 20.739-25.924 15.554-31.109 12.962h-46.663c-27.966-0.571-54.634-5.27-79.696-13.51l1.924 0.548c-23.792-9.668-44.326-21.875-62.693-36.664l0.475 0.37c-18.733-14.242-33.674-32.505-43.695-53.562l-0.376-0.878c-10.666-18.669-17.29-40.879-18.14-64.56l-0.007-0.25c0.088-23.191 3.875-45.468 10.802-66.311l-0.432 1.501c8.454-17.877 20.784-32.698 35.975-43.848l0.318-0.223c17.826-14.651 38.39-26.883 60.659-35.747l1.558-0.547 98.511-36.294 57.033-20.739 49.256-20.739c17.942-5.961 33.367-12.979 47.883-21.392l-1.22 0.652 38.886-25.924c30.035-24.157 53.208-55.673 66.911-91.847l0.492-1.48c13.231-32.338 20.911-69.867 20.911-109.189 0-3.538-0.062-7.062-0.186-10.57l0.014 0.509c0.046-1.817 0.072-3.956 0.072-6.102 0-41.168-9.596-80.095-26.673-114.665l0.677 1.517c-18.119-34.546-41.562-63.782-69.599-87.811l-0.396-0.331c-28.773-25.649-63.5-45.282-101.808-56.556l-1.888-0.477c-37.089-13.005-79.852-20.587-124.365-20.739h-0.071c-3.132-0.109-6.812-0.172-10.506-0.172-80.39 0-153.889 29.509-210.253 78.287l0.405-0.343c-15.077 14.090-28.69 29.348-40.837 45.757l-0.641 0.907c-10.823 11.32-20.285 24.086-28.031 37.941l-0.485 0.945 10.37 7.777c12.725 7.15 27.741 11.815 43.734 12.943l0.337 0.019 33.701-5.185c10.298-2.787 19.088-8.217 25.894-15.522l0.030-0.033c14.92-16.038 31.982-29.798 50.797-40.905l1.051-0.574c12.555-9.155 27.262-16.284 43.147-20.529l0.924-0.21 41.478-7.777h38.886c4.083-0.198 8.868-0.311 13.68-0.311 24.578 0 48.468 2.949 71.335 8.511l-2.057-0.423c29.604 8.499 55.464 20.901 78.672 36.879l-0.9-0.586c23.252 15.635 41.763 36.639 54.027 61.298l0.414 0.919c13.265 22.189 21.108 48.945 21.108 77.533 0 3.733-0.134 7.435-0.397 11.101l0.028-0.492c0.116 2.672 0.182 5.807 0.182 8.956 0 29.457-5.78 57.564-16.268 83.249l0.532-1.472c-10.656 23.223-26.552 42.444-46.251 56.748l-0.412 0.285c-20.162 14.294-43.279 26.542-67.928 35.627l-2.067 0.667-88.142 33.701-108.881 44.071c-31.676 12.845-59.019 28.522-83.867 47.323l0.91-0.66c-22.749 18.011-41.113 40.52-53.932 66.273l-0.509 1.129c-11.655 27.952-18.424 60.426-18.424 94.481 0 4.153 0.101 8.283 0.3 12.387l-0.022-0.579c-0.051 1.71-0.079 3.723-0.079 5.742 0 36.908 9.641 71.564 26.542 101.587l-0.538-1.040c16.289 32.384 39.069 59.311 66.808 79.942l0.595 0.423c25.673 22.696 55.768 41.123 88.728 53.764l2.006 0.676c30.781 10.521 66.291 17.080 103.18 18.135l0.516 0.012c28.765-0.114 56.386-4.848 82.212-13.499l-1.847 0.537c24.631-6.931 46.166-16.669 65.819-29.113l-1.009 0.597c20.591-12.372 38.427-26.083 54.539-41.573l-0.099 0.094 44.071-44.071-20.739-15.554-20.739-7.777-25.924-5.185c-16.352 0.378-31.515 5.152-44.446 13.179l0.375-0.217z" />
<glyph unicode="&#xe911;" glyph-name="trash_icon24" horiz-adv-x="855" d="M41.143 832h-41.143v86.857h283.429l36.571 41.143h210.286l36.571-36.571h283.429v-91.429h-41.143v-768c0.035-1.096 0.055-2.385 0.055-3.679 0-34.319-14.007-65.367-36.616-87.739l-0.011-0.011c-20.597-22.167-49.769-36.125-82.205-36.571l-0.081-0.001h-521.143c-1.096-0.035-2.385-0.055-3.679-0.055-34.319 0-65.367 14.007-87.739 36.616l-0.011 0.011c-18.449 17.988-31.475 41.458-36.446 67.775l-0.125 0.796v786.286zM722.286 832h-182.857c-4.571 0-4.571 0-4.571 4.571l-41.143 36.571h-132.571c0-2.525-2.047-4.571-4.571-4.571v0l-36.571-36.571h-192v-777.143c2.378-20.67 19.776-36.572 40.888-36.572 0.090 0 0.179 0 0.268 0.001h525.7c16.407 5.659 27.983 20.969 27.983 38.982 0 2.378-0.202 4.709-0.589 6.976l0.034-0.243v763.429zM210.286 192v470.857h86.857v-470.857zM466.286 192h-82.286v470.857h82.286zM553.143 662.857h86.857v-470.857h-86.857z" />
<glyph unicode="&#xe912;" glyph-name="upload_icon" horiz-adv-x="1563" d="M781.474 616.421l-323.368-282.947 60.632-53.895 222.316 195.368v-538.947h80.842v538.947l222.316-195.368 60.632 53.895zM1536 960h-1536v-902.737h491.789v67.368h-410.947v768h1401.263v-768h-437.895v-67.368h518.737v902.737z" />
<glyph unicode="&#xe913;" glyph-name="restore_icon" horiz-adv-x="852" d="M425.912 873.912v86.088l226.549-131.398-226.549-131.398v90.619c-0.149 0-0.326 0-0.504 0-119.738 0-224.816-62.765-284.129-157.188l-0.818-1.396c-33.486-51.296-53.404-114.096-53.404-181.548 0-80.987 28.714-155.268 76.516-213.218l-0.458 0.571-77.027-40.779c-53.243 70.321-85.286 159.261-85.286 255.685 0 52.984 9.675 103.709 27.355 150.503l-0.972-2.931c60.847 162.679 214.97 276.401 395.654 276.401 1.080 0 2.159-0.004 3.237-0.012l-0.165 0.001zM688.708 660.956l77.027 40.779c53.768-69.491 86.188-157.871 86.188-253.824 0-48.649-8.334-95.352-23.652-138.759l0.898 2.918c-29.369-86.982-84.922-158.651-157.162-207.518l-1.422-0.907c-67.774-49.825-152.547-80.213-244.353-81.554l-0.319-0.004v-86.088l-226.549 131.398 226.549 131.398v-86.088c2.709-0.082 5.896-0.129 9.094-0.129 113.844 0 213.877 59.136 271.056 148.365l0.771 1.286c35.748 52.508 57.077 117.327 57.077 187.129 0 80.511-28.377 154.394-75.674 212.194l0.473-0.596z" />
<glyph unicode="&#xe914;" glyph-name="add_icon" horiz-adv-x="1019" d="M0 412.932v70.137h472.256v476.932h70.137v-476.932h476.932v-65.461h-476.932v-476.932h-65.461v472.256z" />
<glyph unicode="&#xe915;" glyph-name="minus_icon" d="M46.933 413.867c0 21.333 0 42.667 0 59.733 145.067 0 785.067 0 930.133 0 0-21.333 0-38.4 0-59.733-145.067 4.267-785.067 0-930.133 0z" />
</font>
</defs>
</svg>
