<svg xmlns="http://www.w3.org/2000/svg" viewBox="0 0 250.99 126.72"><defs><style>.cls-1{fill:#ffd300;}.cls-1,.cls-2,.cls-3,.cls-4,.cls-5,.cls-6,.cls-7,.cls-8,.cls-9{fill-rule:evenodd;}.cls-2{fill:#f9a51a;}.cls-3{fill:#c9da2a;}.cls-4{fill:#8bc53f;}.cls-5{fill:#8fa83e;}.cls-6{fill:#f37928;}.cls-7{fill:#cb6a2d;}.cls-8{fill:#f89a1c;}.cls-9{fill:#f05f22;}</style></defs><title>Asset 3</title><g id="Layer_2" data-name="Layer 2"><g id="Layer_1-2" data-name="Layer 1"><path class="cls-1" d="M251,76.65c-29.83.16-97.3-11.92-113.91,43.66,34.6-33.87,65.06-10.78,95.67-29.22-21,19.53-67.55,2.06-93.17,35.49,40.92-.09,97,5.72,111.41-49.93"/><path class="cls-2" d="M205.67,21.11c-25.42,15.59-89.39,40.22-74.8,96.37,12-46.9,50.06-42.93,66.69-74.56-7.88,27.61-56.71,36.76-61.3,78.63,35-21.28,85.95-45.38,69.41-100.44"/><path class="cls-3" d="M45.32,21.11c25.42,15.59,89.39,40.22,74.8,96.37-12-46.9-50.06-42.93-66.69-74.56,7.88,27.61,56.71,36.76,61.3,78.63-35-21.28-85.95-45.38-69.42-100.44"/><path class="cls-4" d="M0,76.65c29.83.16,97.3-11.92,113.91,43.66C79.31,86.44,48.85,109.53,18.24,91.1c21,19.53,67.55,2.06,93.17,35.49C70.49,126.5,14.39,132.3,0,76.65"/><path class="cls-5" d="M83.63,102.52C72.51,95.08,62,86.7,54.38,76.64c25.42,2.82,50.31,12.83,59.53,43.67-10.43-10.21-20.49-15.24-30.28-17.8"/><path class="cls-6" d="M125.51,0c31,35,32.09,84.67,3,122.46l-3-100.52L122.21,122.3C87.64,77,101.4,26.78,125.51,0"/><path class="cls-7" d="M104.8,88a91.49,91.49,0,0,1-3.22-30.37c15.25,14.7,25.27,33.91,18.54,59.84-3.4-13.22-8.85-22.4-15.32-29.47"/><path class="cls-8" d="M167.36,102.52C178.48,95.08,189,86.7,196.61,76.64c-25.42,2.82-50.31,12.83-59.53,43.67,10.43-10.21,20.49-15.24,30.28-17.8"/><path class="cls-9" d="M146.18,88a91.52,91.52,0,0,0,3.22-30.37c-15.25,14.7-25.27,33.91-18.54,59.84,3.4-13.22,8.85-22.4,15.32-29.47"/></g></g></svg>